<svg id="Layer_1" data-name="Layer 1" xmlns="http://www.w3.org/2000/svg" viewBox="0 0 850 220"><defs><style>.cls-1{fill:#252525;}.cls-2{fill:#fbb03b;}.cls-3{fill:#4b32c8;}</style></defs><path class="cls-1" d="M315.43,69.54h26.15V171.35H403.4V194h-88Z"/><path class="cls-1" d="M420.19,133.78q0-19.9,6.23-35.15a50.24,50.24,0,0,1,19.92-23.72q13.85-8.66,34.11-8.66a63.39,63.39,0,0,1,22,3.81,52.14,52.14,0,0,1,19,11.77,55.61,55.61,0,0,1,13.16,20.44q4.86,12.47,4.85,30.3a83.15,83.15,0,0,1-4.15,27.36,59.73,59.73,0,0,1-12.12,20.26A52.7,52.7,0,0,1,504.34,193a66.5,66.5,0,0,1-24.59,4.5q-18,0-31.16-8a54.24,54.24,0,0,1-20.43-21.13,76,76,0,0,1-5.72-14.72,51.84,51.84,0,0,1-2.25-15.41ZM454,162.18q8.13,13.33,25.79,13.33,12.12,0,19.74-6.58a38.39,38.39,0,0,0,10.74-15.76,56,56,0,0,0,3.29-19,75.07,75.07,0,0,0-6.58-31q-6.4-14.53-27.88-14.54a30.41,30.41,0,0,0-14.89,3.81q-7.28,3.81-12.47,13a38.77,38.77,0,0,0-4.15,10.74,44.39,44.39,0,0,0-1.73,12.64Q445.82,148.85,454,162.18Z"/><path class="cls-1" d="M559.92,118.37A83.61,83.61,0,0,1,563,105.9,59.35,59.35,0,0,1,574.3,85.47a51.81,51.81,0,0,1,19-14,69.28,69.28,0,0,1,27-5h2.08l2.25.18a54.48,54.48,0,0,1,13.16,1.55,53.72,53.72,0,0,1,12.12,5,49,49,0,0,1,17.49,15.41,38.82,38.82,0,0,1,5.2,9.87,27.76,27.76,0,0,1,1.73,9.69h-26a21.08,21.08,0,0,0-3.8-8.83,28.09,28.09,0,0,0-9.53-8.14,28.7,28.7,0,0,0-14.2-3.29,35.68,35.68,0,0,0-5.71.52,46.67,46.67,0,0,0-6.23,1.39,33.25,33.25,0,0,0-11.26,6.93q-5.37,4.84-8.83,14a63.25,63.25,0,0,0-3.46,22q0,13.86,4.15,23.2t10.74,13.51a38.53,38.53,0,0,0,15.58,5.71l4.68.35a34.37,34.37,0,0,0,13.85-2.94,27.37,27.37,0,0,0,11.08-9.18A41.48,41.48,0,0,0,651.69,148H623V127h51.77v67H657.41l-2.6-15.59a51.45,51.45,0,0,1-13,12,33.12,33.12,0,0,1-13.51,5.72,83.47,83.47,0,0,1-15.24,1.38,45.43,45.43,0,0,1-19.91-4.67,51.75,51.75,0,0,1-17.66-13.34,58.9,58.9,0,0,1-12.3-21.12,79.51,79.51,0,0,1-4.5-27.19A65.85,65.85,0,0,1,559.92,118.37Z"/><path class="cls-1" d="M697.93,133.78q0-19.9,6.23-35.15a50.28,50.28,0,0,1,19.91-23.72q13.86-8.66,34.11-8.66a63.31,63.31,0,0,1,22,3.81,52.1,52.1,0,0,1,19.05,11.77,55.74,55.74,0,0,1,13.16,20.44q4.85,12.47,4.85,30.3a83.14,83.14,0,0,1-4.16,27.36A59.57,59.57,0,0,1,801,180.19,52.57,52.57,0,0,1,782.08,193a66.53,66.53,0,0,1-24.59,4.5q-18,0-31.17-8a54.38,54.38,0,0,1-20.43-21.13,76,76,0,0,1-5.71-14.72,51.84,51.84,0,0,1-2.25-15.41Zm33.76,28.4q8.14,13.33,25.8,13.33,12.12,0,19.74-6.58A38.39,38.39,0,0,0,788,153.17a56,56,0,0,0,3.29-19,75.23,75.23,0,0,0-6.58-31Q778.26,88.6,756.8,88.59a30.39,30.39,0,0,0-14.89,3.81q-7.27,3.81-12.47,13a38.76,38.76,0,0,0-4.16,10.74,44.74,44.74,0,0,0-1.73,12.64Q723.55,148.85,731.69,162.18Z"/><path class="cls-2" d="M133.58,2.24h0a0,0,0,0,1,0,0V167.47a50.29,50.29,0,0,1-50.29,50.29h0a0,0,0,0,1,0,0V52.53A50.29,50.29,0,0,1,133.58,2.24Z" transform="translate(69.53 -39.48) rotate(30)"/><path class="cls-3" d="M228.46,2.24h0a0,0,0,0,1,0,0V167.47a50.29,50.29,0,0,1-50.29,50.29h0a0,0,0,0,1,0,0V52.53A50.29,50.29,0,0,1,228.46,2.24Z" transform="translate(82.24 -86.92) rotate(30)"/></svg>